<svg xmlns="http://www.w3.org/2000/svg" width="32" height="32" viewBox="0 0 24 24"><!-- Icon from Huge Icons by Hugeicons - undefined --><g fill="none" stroke="currentColor" stroke-linecap="round" stroke-linejoin="round" stroke-width="1.5" color="currentColor"><path d="M19.745 13a7 7 0 1 0-12.072-1"/><path d="M12 5.5c.167.815.4 1.667 2 2.556m0 0c1.6-.89 1.833-1.741 2-2.556m-2 2.556V12.5m2-2.667h-4M3 14h2.395c.294 0 .584.066.847.194l2.042.988c.263.127.553.193.848.193h1.042c1.008 0 1.826.791 1.826 1.767c0 .04-.027.074-.066.085l-2.541.703a1.95 1.95 0 0 1-1.368-.124L5.842 16.75M12 16.5l4.593-1.411a1.985 1.985 0 0 1 2.204.753c.369.51.219 1.242-.319 1.552l-7.515 4.337a2 2 0 0 1-1.568.187L3 20.02"/></g></svg>