<?xml version="1.0" standalone="no"?><!DOCTYPE svg PUBLIC "-//W3C//DTD SVG 1.1//EN" "http://www.w3.org/Graphics/SVG/1.1/DTD/svg11.dtd"><svg t="1747114135729" class="icon" viewBox="0 0 1024 1024" version="1.1" xmlns="http://www.w3.org/2000/svg" p-id="3607" xmlns:xlink="http://www.w3.org/1999/xlink" width="200" height="200"><path d="M944.853333 614.997333l-20.949333 6.784c-1.194667 0.384-2.901333 1.152-4.693333 1.92a46.037333 46.037333 0 0 1-27.648 5.12 187.733333 187.733333 0 0 1-24.704-6.314666c-3.029333 17.792-6.186667 36.096-10.88 54.144a263.210667 263.210667 0 0 1-127.104 156.330666c-8.874667 5.461333-17.877333 10.922667-26.624 16.213334a859.562667 859.562667 0 0 0-80 52.352 293.290667 293.290667 0 0 0-47.36 51.2l-7.637334 9.6a42.410667 42.410667 0 0 1-36.992 18.986666 37.802667 37.802667 0 0 1-29.866666-21.546666 216.32 216.32 0 0 0-76.074667-75.349334c-13.781333-9.002667-28.16-18.005333-42.026667-26.709333-28.8-18.090667-58.581333-36.778667-86.826666-57.386667a237.354667 237.354667 0 0 1-93.866667-172.16l-0.469333-3.925333a190.421333 190.421333 0 0 1-24.021334 5.077333 48.469333 48.469333 0 0 1-40.832-12.8l-0.469333-0.554666A32.810667 32.810667 0 0 1 128 595.114667a39.808 39.808 0 0 1 19.242667-32.170667l0.384-0.256c27.690667-19.285333 55.850667-39.253333 83.072-58.581333a39.424 39.424 0 0 1 49.664 0.341333c10.624 7.552 21.546667 15.104 32.128 22.442667 17.408 12.032 35.370667 24.490667 52.821333 37.504l0.341333 0.256a43.477333 43.477333 0 0 1 13.994667 25.6c0.426667 1.706667 0.853333 3.456 1.237333 4.266666l7.381334 20.821334-20.949334 6.784c-1.194667 0.384-2.901333 1.152-4.693333 1.92a46.122667 46.122667 0 0 1-27.562667 5.12 290.773333 290.773333 0 0 1-21.333333-4.48 131.285333 131.285333 0 0 0 42.197333 45.824 249.6 249.6 0 0 0 92.416 38.4c4.266667-85.333333 9.088-172.288 13.610667-256.512l2.176-40.874667-5.077333-0.213333c-21.333333-0.981333-41.301333-1.877333-61.525334-2.389334l-2.218666 1.450667-1.664 1.109333A71.509333 71.509333 0 0 1 300.8 405.333333a67.242667 67.242667 0 0 1-18.730667-46.421333 66.304 66.304 0 0 1 17.408-44.714667 71.552 71.552 0 0 1 94.890667-7.125333l0.341333 0.256a22.869333 22.869333 0 0 0 2.944 1.877333c17.066667-0.597333 34.517333-1.493333 51.456-2.389333l10.325334-0.554667A115.968 115.968 0 0 1 409.6 208.725333a128 128 0 0 1 6.997333-41.856 122.24 122.24 0 0 1 130.261334-81.066666 120.789333 120.789333 0 0 1 108.544 99.114666 115.84 115.84 0 0 1-47.786667 121.344c10.581333 0.853333 21.333333 1.365333 31.658667 1.877334l11.690666 0.597333c14.421333 0.64 21.077333 0.682667 28.544-5.162667a68.266667 68.266667 0 0 1 91.306667 13.909334 64.853333 64.853333 0 0 1-5.973333 88.96 72.533333 72.533333 0 0 1-89.984 6.058666h-0.298667a21.333333 21.333333 0 0 0-10.197333-3.456c-17.066667 0.426667-34.432 1.322667-52.736 2.218667l-7.68 0.384c5.333333 100.096 10.496 199.850667 15.488 296.576v1.28a180.053333 180.053333 0 0 0 125.312-83.029333 177.834667 177.834667 0 0 1-11.861334 2.816 42.325333 42.325333 0 0 1-42.666666-16.597334l-0.298667-0.597333a31.189333 31.189333 0 0 1-3.413333-14.762667 42.666667 42.666667 0 0 1 13.482666-31.530666l0.512-0.426667c27.733333-21.333333 57.472-42.666667 88.405334-63.018667a45.482667 45.482667 0 0 1 44.970666 0c28.330667 18.389333 57.344 38.741333 88.661334 62.250667a40.661333 40.661333 0 0 1 13.653333 25.045333c0.384 1.664 0.810667 3.541333 1.152 4.48zM535.04 934.4l6.4-8.064a324.522667 324.522667 0 0 1 54.869333-58.624 904.874667 904.874667 0 0 1 83.925334-54.997333c8.533333-5.205333 17.578667-10.624 26.24-15.957334A219.989333 219.989333 0 0 0 814.933333 665.6c4.266667-16.725333 7.296-34.133333 10.368-52.224 1.28-7.466667 2.602667-15.232 4.010667-22.954667l4.266667-23.765333 23.04 7.296 12.032 3.968h0.512a1449.386667 1449.386667 0 0 0-56.874667-39.082667 9.856 9.856 0 0 0-1.322667 0c-19.498667 12.8-38.4 26.154667-56.874666 39.552 4.266667-1.450667 9.088-2.944 13.781333-4.266666l26.325333-7.978667 1.194667 27.477333a141.610667 141.610667 0 0 1-64 110.933334 227.157333 227.157333 0 0 1-131.626667 48.682666l-20.565333 0.341334-2.261333-43.818667a145562.026667 145562.026667 0 0 0-16.64-317.909333l-1.152-21.333334 21.333333-0.981333c9.984-0.426667 19.584-0.938667 28.928-1.408 18.688-0.938667 36.352-1.834667 54.144-2.304h0.554667a64 64 0 0 1 34.730666 11.093333 30.506667 30.506667 0 0 0 36.181334-1.365333 23.765333 23.765333 0 0 0 7.936-17.066667 24.021333 24.021333 0 0 0-5.632-14.848 26.154667 26.154667 0 0 0-31.530667-6.826666 77.696 77.696 0 0 1-56.789333 14.250666h-0.213334l-11.733333-0.597333c-14.890667-0.725333-30.293333-1.536-45.824-3.157333a42.154667 42.154667 0 0 1-33.066667-21.973334l-0.256-0.64a42.325333 42.325333 0 0 1-3.328-15.957333 36.778667 36.778667 0 0 1 20.309334-32.469333 71.936 71.936 0 0 0 40.021333-65.792 112.042667 112.042667 0 0 0-1.664-18.474667 77.653333 77.653333 0 0 0-69.76-63.744 79.786667 79.786667 0 0 0-86.613333 52.394667 85.333333 85.333333 0 0 0-4.693334 27.989333 72.533333 72.533333 0 0 0 34.432 64 43.434667 43.434667 0 0 1 25.173334 39.253333 77.738667 77.738667 0 0 1-2.986667 19.370667l-3.925333 15.317333-15.786667 0.682667c-12.8 0.554667-25.6 1.237333-37.717333 1.877333-17.493333 0.938667-35.626667 1.877333-53.461334 2.474667a44.373333 44.373333 0 0 1-28.117333-9.941333 29.866667 29.866667 0 0 0-38.784 1.024 23.722667 23.722667 0 0 0-6.272 15.957333 24.746667 24.746667 0 0 0 6.997333 17.066667 29.269333 29.269333 0 0 0 37.632 0.682666l0.810667-0.554666 1.578667-1.066667a41.514667 41.514667 0 0 1 23.04-8.533333h0.469333a2545.066667 2545.066667 0 0 1 65.877333 2.517333l26.496 1.194667 21.546667 0.896-4.437333 83.882666c-4.949333 91.989333-10.069333 187.136-14.848 280.106667l-1.152 22.698667-22.570667-2.602667c-95.701333-10.965333-199.381333-70.485333-203.093333-159.189333l-1.194667-28.586667 27.733333 6.997333c5.76 1.450667 11.434667 2.986667 17.066667 4.48l9.258667 2.474667c-9.173333-6.485333-18.432-12.8-27.477334-19.157333a2573.354667 2573.354667 0 0 1-32.725333-22.869334c-19.882667 14.08-40.234667 28.501333-60.501333 42.666667l4.778666-1.365333c4.266667-1.28 9.088-2.602667 13.866667-3.84l23.424-6.101334 3.072 24.021334 1.749333 12.8c0.768 5.418667 1.450667 10.538667 2.048 15.616a196.778667 196.778667 0 0 0 76.8 142.890666c26.965333 19.669333 56.106667 37.973333 84.266667 55.466667 14.037333 8.789333 28.544 17.92 42.666667 27.136A260.736 260.736 0 0 1 535.04 934.4z m54.4-725.888a55.466667 55.466667 0 0 1-56.32 54.101333 54.741333 54.741333 0 1 1-1.28-109.44 56.277333 56.277333 0 0 1 40.533333 16.085334 54.314667 54.314667 0 0 1 17.066667 38.4z m-69.290667-0.938667a12.288 12.288 0 0 0 12.8 12.373334 12.8 12.8 0 0 0 13.653334-11.434667v-0.597333a11.989333 11.989333 0 0 0-4.053334-7.893334 13.696 13.696 0 0 0-9.216-4.181333h-0.554666a12.416 12.416 0 0 0-12.672 11.733333z" p-id="3608"></path></svg>